<?xml version="1.0" encoding="UTF-8"?>
<svg width="16px" height="14px" viewBox="0 0 16 14" version="1.1" xmlns="http://www.w3.org/2000/svg" xmlns:xlink="http://www.w3.org/1999/xlink">
    <!-- Generator: Sketch 60.1 (88133) - https://sketch.com -->
    <title>皮肤</title>
    <desc>Created with Sketch.</desc>
    <g id="页面-1" stroke="none" stroke-width="1" fill="none" fill-rule="evenodd">
        <g id="个人发展轨迹" transform="translate(-21.000000, -59.000000)" fill-rule="nonzero">
            <g id="编组-17" transform="translate(17.000000, 54.000000)">
                <g id="皮肤" transform="translate(4.000000, 4.000000)">
                    <rect id="矩形" fill="#000000" opacity="0" x="0" y="0" width="16" height="16"></rect>
                    <path d="M12.075,1.5 L12.075,2.5 L14.625,5.025 L13.2,6.45 C13,6.275 12.775,6.2 12.525,6.2 C11.95,6.2 11.5,6.65 11.5,7.225 L11.5,12.5 C11.5,13.05 11.05,13.5 10.5,13.5 L5.5,13.5 C4.95,13.5 4.5,13.05 4.5,12.5 L4.5,7.225 C4.5,6.65 4.05,6.2 3.475,6.2 C3.225,6.2 2.975,6.3 2.8,6.45 L1.375,5.025 L3.9,2.5 L4.525,2.5 L4.55,2.525 C5.25,3.575 6.575,4.25 8,4.25 C9.425,4.25 10.75,3.6 11.45,2.525 C11.45,2.5 11.475,2.5 11.475,2.5 L12.075,2.5 L12.075,1.5 M4.55,1.5 L4,1.5 C3.65,1.5 3.4,1.6 3.225,1.8 L0.675,4.325 C0.275,4.725 0.275,5.35 0.675,5.725 L2.15,7.2 C2.325,7.375 2.575,7.475 2.8,7.475 C3.025,7.475 3.275,7.375 3.45,7.2 L3.475,7.2 C3.5,7.2 3.5,7.2 3.5,7.225 L3.5,12.5 C3.5,13.6 4.4,14.5 5.5,14.5 L10.5,14.5 C11.6,14.5 12.5,13.6 12.5,12.5 L12.5,7.225 C12.5,7.2 12.5,7.2 12.525,7.2 L12.55,7.2 C12.725,7.375 12.975,7.475 13.2,7.475 C13.45,7.475 13.675,7.375 13.85,7.2 L15.325,5.725 C15.725,5.325 15.725,4.7 15.325,4.325 L12.8,1.8 C12.6,1.6 12.35,1.5 12.075,1.5 L11.45,1.5 C11.1,1.5 10.8,1.675 10.6,1.975 C10.075,2.75 9.1,3.25 7.975,3.25 C6.85,3.25 5.875,2.725 5.35,1.975 C5.2,1.675 4.875,1.5 4.55,1.5 Z" id="形状" fill="#FFFFFF"></path>
                </g>
            </g>
        </g>
    </g>
</svg>