<?xml version="1.0" encoding="UTF-8"?>
<svg width="42px" height="42px" viewBox="0 0 42 42" version="1.1" xmlns="http://www.w3.org/2000/svg" xmlns:xlink="http://www.w3.org/1999/xlink">
    <!-- Generator: Sketch 55.2 (78181) - https://sketchapp.com -->
    <title>shopping-line</title>
    <desc>Created with Sketch.</desc>
    <g id="页面1" stroke="none" stroke-width="1" fill="none" fill-rule="evenodd">
        <g id="我的积分" transform="translate(-763.000000, -93.000000)" fill="#000000" fill-rule="nonzero">
            <g id="编组-5" transform="translate(544.000000, 58.000000)">
                <g id="编组-4" transform="translate(120.000000, 28.000000)">
                    <g id="shopping-line" transform="translate(92.000000, 0.000000)">
                        <rect id="矩形" opacity="0" x="0" y="0" width="56" height="56"></rect>
                        <path d="M45.5,14 L35,14 L35,8.79375 C35,7.83125 34.2125,7 33.20625,7 L22.75,7 C21.7875,7 20.95625,7.7875 20.95625,8.79375 L20.95625,14 L10.5,14 L7,45.5 C7,47.425 8.575,49 10.5,49 L45.5,49 C47.425,49 49,47.425 49,45.5 L45.5,14 Z M24.5,10.5 L31.5,10.5 L31.5,14 L24.5,14 L24.5,10.5 Z M42.35,17.5 L45.45625,45.5 L10.5,45.5 L13.60625,17.5 L42.35,17.5 Z M24.45625,19.29375 L21,19.29375 L21,22.75 L24.45625,22.75 L24.45625,19.29375 Z M35,19.29375 L31.54375,19.29375 L31.54375,22.75 L35,22.75 L35,19.29375 Z" id="形状"></path>
                    </g>
                </g>
            </g>
        </g>
    </g>
</svg>