<?xml version="1.0" encoding="UTF-8"?>
<svg width="42px" height="42px" viewBox="0 0 42 42" version="1.1" xmlns="http://www.w3.org/2000/svg" xmlns:xlink="http://www.w3.org/1999/xlink">
    <!-- Generator: Sketch 55.2 (78181) - https://sketchapp.com -->
    <title>shopping_white</title>
    <desc>Created with Sketch.</desc>
    <g id="页面1" stroke="none" stroke-width="1" fill="none" fill-rule="evenodd">
        <g id="积分商城入口" transform="translate(-256.000000, -92.000000)" fill-rule="nonzero">
            <g id="编组-5" transform="translate(37.000000, 57.000000)">
                <g id="编组-4" transform="translate(168.000000, 28.000000)">
                    <g id="shopping_white" transform="translate(44.000000, 0.000000)">
                        <rect id="矩形" fill="#000000" opacity="0" x="0" y="0" width="56" height="56"></rect>
                        <path d="M45.5,14 L35,14 L35,8.79375 C35,7.83125 34.2125,7 33.20625,7 L22.75,7 C21.7875,7 20.95625,7.7875 20.95625,8.79375 L20.95625,14 L10.5,14 L7,45.5 C7,47.425 8.575,49 10.5,49 L45.5,49 C47.425,49 49,47.425 49,45.5 L45.5,14 Z M24.5,10.5 L31.5,10.5 L31.5,14 L24.5,14 L24.5,10.5 Z M24.45625,21 L21,21 L21,17.54375 L24.45625,17.54375 L24.45625,21 Z M35,21 L31.54375,21 L31.54375,17.54375 L35,17.54375 L35,21 Z" id="形状" fill="#FFFFFF"></path>
                    </g>
                </g>
            </g>
        </g>
    </g>
</svg>