<?xml version="1.0" standalone="no"?><!DOCTYPE svg PUBLIC "-//W3C//DTD SVG 1.1//EN" "http://www.w3.org/Graphics/SVG/1.1/DTD/svg11.dtd"><svg t="1573634514131" class="icon" viewBox="0 0 1024 1024" version="1.1" xmlns="http://www.w3.org/2000/svg" p-id="2077" xmlns:xlink="http://www.w3.org/1999/xlink" width="200" height="200"><defs><style type="text/css"></style></defs><path d="M844.5 918.6H184.6c-42.9 0-77.9-34.9-77.9-77.9V180.9c0-42.9 34.9-77.9 77.9-77.9h659.9c42.9 0 77.9 34.9 77.9 77.9v659.9c-0.1 42.9-35 77.8-77.9 77.8zM184.6 131c-27.5 0-49.9 22.4-49.9 49.9v659.9c0 27.5 22.4 49.9 49.9 49.9h659.9c27.5 0 49.9-22.4 49.9-49.9V180.9c0-27.5-22.4-49.9-49.9-49.9H184.6z" fill="#263554" p-id="2078"></path><path d="M829.4 215c0-9.9-8-18-17.9-18.1l-179.2-0.7c-9.9 0-18 8-18.1 17.9 0 9.9 8 18 17.9 18.1l179.2 0.7c9.9 0.1 18.1-8 18.1-17.9z" fill="#263554" p-id="2079"></path><path d="M811.5 197.1c-9.9 0-18 8-18.1 17.9l-0.7 179.2c0 9.9 8 18 17.9 18.1 9.9 0 18-8 18.1-17.9l0.7-179.2c0-9.9-8-18-17.9-18.1zM196.6 810.9c0 9.9 8 18 17.9 18.1l179.2 0.7c9.9 0 18-8 18.1-17.9 0-9.9-8-18-17.9-18.1l-179.2-0.7c-9.9-0.1-18.1 8-18.1 17.9z" fill="#263554" p-id="2080"></path><path d="M214.5 828.7c9.9 0 18-8 18.1-17.9l0.7-179.2c0-9.9-8-18-17.9-18.1-9.9 0-18 8-18.1 17.9l-0.7 179.2c0 9.9 8 18.1 17.9 18.1z" fill="#263554" p-id="2081"></path><path d="M219.7 807.6c6.5 6.4 17 6.3 23.3-0.1l236.3-239c6.4-6.5 6.3-17-0.1-23.3-6.5-6.4-17-6.3-23.3 0.1l-236.3 239c-6.4 6.4-6.4 16.9 0.1 23.3zM543.3 483.9c6.5 6.4 17 6.3 23.3-0.1l236.3-239c6.4-6.5 6.3-17-0.1-23.3-6.5-6.4-17-6.3-23.3 0.1l-236.3 239c-6.4 6.5-6.3 17 0.1 23.3z" fill="#263554" p-id="2082"></path></svg>