<?xml version="1.0" standalone="no"?><!DOCTYPE svg PUBLIC "-//W3C//DTD SVG 1.1//EN" "http://www.w3.org/Graphics/SVG/1.1/DTD/svg11.dtd"><svg t="1589711527288" class="icon" viewBox="0 0 1024 1024" version="1.1" xmlns="http://www.w3.org/2000/svg" p-id="3517" xmlns:xlink="http://www.w3.org/1999/xlink" width="200" height="200"><defs><style type="text/css"></style></defs><path d="M396.8 38.4h-304c-32 0-54.4 25.6-54.4 54.4V400c0 32 25.6 54.4 54.4 54.4H400c16 0 28.8-6.4 38.4-16 9.6-9.6 16-25.6 16-38.4V92.8c0-28.8-25.6-54.4-57.6-54.4z m531.2 0H620.8c-32 0-54.4 25.6-54.4 54.4V400c0 16 6.4 28.8 16 38.4 9.6 9.6 25.6 16 38.4 16H928c32 0 54.4-25.6 54.4-54.4V92.8c0-28.8-25.6-54.4-54.4-54.4z m-531.2 528h-304c-32 0-54.4 25.6-54.4 54.4V928c0 32 25.6 54.4 54.4 54.4H400c32 0 54.4-25.6 54.4-54.4V620.8c0-28.8-25.6-54.4-57.6-54.4zM947.2 784c6.4 9.6 12.8 16 25.6 19.2 3.2 0 3.2 3.2 6.4 3.2 3.2 3.2 6.4 6.4 6.4 12.8V832c0 6.4-3.2 12.8-6.4 16-3.2 6.4-6.4 9.6-9.6 16l-9.6 9.6c-3.2 3.2-6.4 3.2-9.6 3.2-3.2 0-6.4 0-9.6-3.2-3.2 0-9.6-3.2-12.8-3.2h-16c-6.4 0-9.6 0-16 3.2-6.4 0-9.6 3.2-12.8 9.6-6.4 9.6-12.8 19.2-12.8 28.8 0 9.6 0 19.2 3.2 28.8 3.2 6.4 3.2 12.8 0 19.2l-9.6 9.6c-3.2 3.2-9.6 6.4-12.8 6.4-6.4 3.2-9.6 3.2-16 6.4-6.4 0-9.6 3.2-16 3.2-3.2 0-6.4 0-9.6-3.2l-6.4-6.4c-3.2-9.6-9.6-19.2-19.2-25.6-9.6-6.4-19.2-9.6-32-9.6s-22.4 3.2-32 9.6c-9.6 6.4-16 16-19.2 25.6-3.2 3.2-3.2 6.4-6.4 9.6-3.2 3.2-6.4 3.2-9.6 3.2-3.2 0-9.6 0-16-3.2s-12.8-3.2-16-6.4c-6.4-3.2-9.6-6.4-16-9.6-3.2-3.2-9.6-6.4-9.6-9.6-3.2-3.2-3.2-6.4-3.2-9.6 0-3.2 0-6.4 3.2-12.8s6.4-16 3.2-25.6c0-9.6-6.4-19.2-12.8-25.6-3.2-6.4-9.6-9.6-16-9.6s-12.8-3.2-19.2-3.2c-6.4 0-16 3.2-22.4 3.2h-12.8c-3.2 0-6.4-3.2-9.6-9.6-3.2-6.4-6.4-9.6-9.6-16-3.2-6.4-3.2-12.8-6.4-19.2 0-6.4-3.2-9.6 0-16 0-6.4 3.2-12.8 9.6-12.8 9.6-3.2 19.2-9.6 25.6-19.2 6.4-9.6 12.8-19.2 12.8-28.8 0-12.8-3.2-22.4-12.8-28.8-6.4-9.6-16-16-25.6-19.2-3.2 0-6.4-3.2-6.4-6.4-3.2-3.2-3.2-6.4-3.2-12.8 0-3.2 0-9.6 3.2-12.8 0-6.4 3.2-9.6 6.4-16s3.2-9.6 6.4-12.8l9.6-9.6c3.2-3.2 6.4-3.2 6.4-3.2 3.2 0 6.4 0 9.6 3.2 9.6 3.2 19.2 6.4 32 3.2 9.6 0 19.2-6.4 28.8-12.8 3.2-3.2 6.4-9.6 9.6-16 3.2-6.4 3.2-12.8 3.2-16v-25.6c0-3.2 0-3.2-3.2-6.4v-6.4c3.2-3.2 6.4-9.6 9.6-12.8 6.4-3.2 9.6-6.4 16-9.6 6.4-3.2 12.8-3.2 16-6.4 6.4 0 9.6-3.2 12.8-3.2 3.2 0 6.4 0 9.6 3.2 3.2 3.2 3.2 6.4 6.4 9.6 3.2 9.6 9.6 16 19.2 22.4 9.6 6.4 19.2 9.6 28.8 9.6 12.8 0 22.4-3.2 32-9.6 9.6-6.4 16-16 19.2-25.6 0-3.2 3.2-6.4 6.4-9.6 3.2-3.2 6.4-3.2 9.6-3.2 3.2 0 9.6 0 16 3.2 6.4 0 9.6 3.2 16 6.4s9.6 6.4 16 9.6c3.2 3.2 9.6 6.4 9.6 12.8 3.2 3.2 3.2 6.4 0 9.6 0 3.2 0 6.4-3.2 6.4-3.2 9.6-6.4 19.2-3.2 28.8 3.2 9.6 6.4 19.2 16 28.8 6.4 6.4 19.2 12.8 28.8 12.8 12.8 0 22.4 0 32-6.4 3.2-3.2 6.4-3.2 9.6-3.2 3.2 0 6.4 3.2 9.6 3.2 6.4 3.2 9.6 12.8 12.8 22.4 3.2 9.6 6.4 19.2 6.4 28.8 0 6.4 0 9.6-3.2 12.8L976 704c-9.6 3.2-19.2 9.6-25.6 19.2-6.4 9.6-9.6 19.2-9.6 32-3.2 9.6 0 19.2 6.4 28.8zM832 678.4c-9.6-9.6-22.4-16-35.2-22.4-12.8-6.4-28.8-9.6-41.6-9.6-16 0-28.8 3.2-41.6 9.6-12.8 6.4-25.6 12.8-35.2 22.4-9.6 9.6-19.2 22.4-22.4 35.2-6.4 12.8-9.6 25.6-9.6 41.6s3.2 28.8 9.6 41.6c6.4 12.8 12.8 25.6 22.4 35.2 9.6 9.6 22.4 19.2 35.2 22.4 12.8 6.4 25.6 9.6 41.6 9.6s28.8-3.2 41.6-9.6c12.8-6.4 25.6-12.8 35.2-22.4 9.6-9.6 19.2-22.4 22.4-35.2 6.4-12.8 9.6-25.6 9.6-41.6s-3.2-28.8-9.6-41.6c-6.4-12.8-12.8-25.6-22.4-35.2z m0 0" fill="#2a86e8" p-id="3518"></path></svg>