<?xml version="1.0" standalone="no"?><!DOCTYPE svg PUBLIC "-//W3C//DTD SVG 1.1//EN" "http://www.w3.org/Graphics/SVG/1.1/DTD/svg11.dtd"><svg t="1589711440370" class="icon" viewBox="0 0 1024 1024" version="1.1" xmlns="http://www.w3.org/2000/svg" p-id="1965" xmlns:xlink="http://www.w3.org/1999/xlink" width="200" height="200"><defs><style type="text/css"></style></defs><path d="M932.921116 4.079681H86.999203A87.101195 87.101195 0 0 0 0 91.078884V745.765737a87.101195 87.101195 0 0 0 86.999203 86.999203h845.921913A87.101195 87.101195 0 0 0 1019.920319 745.765737V91.078884A87.101195 87.101195 0 0 0 932.921116 4.079681zM86.999203 67.824701h845.921913a23.270502 23.270502 0 0 1 23.254183 23.254183v486.705977H63.74502V91.078884a23.270502 23.270502 0 0 1 23.254183-23.254183zM932.921116 769.01992H86.999203a23.270502 23.270502 0 0 1-23.254183-23.254183v-104.235857h892.430279v104.235857a23.270502 23.270502 0 0 1-23.254183 23.254183z m-454.823267-31.86231h63.724621v-63.765419h-63.724621v63.765419z m-63.765419-318.745498H509.960159a31.888829 31.888829 0 0 0 31.250359-25.6l9.995219-49.894502 56.401594 150.458645A31.87659 31.87659 0 0 0 637.450199 514.039841c0.836335 0 1.713466-0.040797 2.590598-0.101992a31.87659 31.87659 0 0 0 28.659761-25.518407l37.981832-189.807171 27.599044 96.688446A31.894948 31.894948 0 0 0 764.940239 418.412112h95.627729a31.862311 31.862311 0 0 0 0-63.724622h-71.598406l-57.115538-199.985976a31.005578 31.005578 0 0 0-31.943904-23.090996 31.837833 31.837833 0 0 0-29.965259 25.579602l-41.85753 209.246852-56.401594-150.458645a31.886789 31.886789 0 0 0-61.113625 4.956812l-26.721913 133.752351h-69.517769a31.862311 31.862311 0 0 0 0 63.724622z m-223.09737-254.98008H127.49004v63.765418h63.74502V163.432032z m0 127.49004H127.49004v63.765418h63.74502v-63.765418z m0 127.49004H127.49004v63.765418h63.74502v-63.765418z m127.49004-254.98008H254.98008v63.765418h63.74502V163.432032z m0 127.49004H254.98008v63.765418h63.74502v-63.765418z m0 127.49004H254.98008v63.765418h63.74502v-63.765418zM764.940239 960.25498h-55.096096c-10.178805-7.975777-40.531633-39.246534-40.531633-127.49004h-63.724622c0 58.217052 11.239522 98.993466 25.518407 127.49004H388.814024c14.278884-28.496574 25.518406-69.272988 25.518406-127.49004h-63.724621c0 95.9949-29.863267 118.902311-40.858008 127.49004H254.98008a31.87251 31.87251 0 0 0 0 63.74502h509.960159a31.87251 31.87251 0 0 0 0-63.74502z" p-id="1966" fill="#2a86e8"></path></svg>