<?xml version="1.0" standalone="no"?><!DOCTYPE svg PUBLIC "-//W3C//DTD SVG 1.1//EN" "http://www.w3.org/Graphics/SVG/1.1/DTD/svg11.dtd"><svg t="1588586298278" class="icon" viewBox="0 0 1024 1024" version="1.1" xmlns="http://www.w3.org/2000/svg" p-id="2243" xmlns:xlink="http://www.w3.org/1999/xlink" width="200" height="200"><defs><style type="text/css"></style></defs><path d="M864.75 97h-705.5C124.93 97 97 124.93 97 159.25v705.5c0 34.32 27.93 62.25 62.25 62.25h705.5c34.32 0 62.25-27.93 62.25-62.25v-705.5C927 124.93 899.07 97 864.75 97z m20.75 767.75c0 11.45-9.3 20.75-20.75 20.75h-705.5c-11.45 0-20.75-9.3-20.75-20.75V404.72h747v460.03z m0-501.53h-747V159.25c0-11.45 9.3-20.75 20.75-20.75h705.5c11.45 0 20.75 9.3 20.75 20.75v203.97z" p-id="2244" fill="#1890ff"></path><path d="M254.39 252.12m-34.76 0a34.76 34.76 0 1 0 69.52 0 34.76 34.76 0 1 0-69.52 0Z" p-id="2245" fill="#1890ff"></path><path d="M370.58 252.12m-34.76 0a34.76 34.76 0 1 0 69.52 0 34.76 34.76 0 1 0-69.52 0Z" p-id="2246" fill="#1890ff"></path><path d="M486.78 252.12m-34.76 0a34.76 34.76 0 1 0 69.52 0 34.76 34.76 0 1 0-69.52 0Z" p-id="2247" fill="#1890ff"></path></svg>